<?xml version="1.0" standalone="no"?>
<!DOCTYPE svg PUBLIC "-//W3C//DTD SVG 20010904//EN"
    "http://www.w3.org/TR/2001/REC-SVG-20010904/DTD/svg10.dtd">
<svg version="1.0" xmlns="http://www.w3.org/2000/svg"
     width="260.000000pt" height="260.000000pt" viewBox="0 0 260.000000 260.000000"
     preserveAspectRatio="xMidYMid meet">
    <metadata>
        Created by potrace 1.14, written by Peter Selinger 2001-2017
    </metadata>
    <g transform="translate(0.000000,260.000000) scale(0.100000,-0.100000)"
       fill="#000000" stroke="none">
        <path d="M2030 2529 c0 -5 5 -7 10 -4 6 3 10 8 10 11 0 2 -4 4 -10 4 -5 0 -10
-5 -10 -11z"/>
        <path d="M2049 2523 c-9 -10 -15 -10 -25 -2 -8 6 -14 7 -14 2 0 -6 -15 -11
-32 -12 -56 -4 -58 -4 -58 -14 0 -6 -3 -7 -7 -4 -3 4 -12 -1 -20 -11 -8 -9
-12 -11 -8 -4 5 9 -1 12 -21 9 -15 -2 -30 -10 -32 -17 -3 -9 1 -11 12 -7 9 4
15 3 12 -2 -6 -10 18 -34 26 -26 2 3 5 -3 5 -12 0 -22 -51 -75 -62 -65 -5 4
-5 1 -1 -6 4 -7 1 -15 -8 -18 -9 -3 -16 -12 -16 -20 0 -8 -4 -13 -8 -11 -4 1
-20 -10 -35 -25 -15 -16 -24 -28 -20 -28 4 -1 -3 -7 -17 -15 -14 -8 -22 -14
-17 -15 4 0 -1 -8 -10 -18 -10 -11 -21 -17 -25 -15 -4 2 -9 -6 -13 -17 -4 -11
-11 -18 -16 -15 -9 6 -14 -9 -9 -30 1 -5 -2 -7 -6 -3 -4 4 -13 3 -20 -3 -10
-8 -19 -7 -34 4 -16 11 -18 16 -8 20 7 3 3 6 -10 6 -13 1 -20 5 -17 11 3 6 -1
10 -9 10 -9 0 -16 6 -16 14 0 8 -7 17 -16 20 -10 4 -13 2 -8 -7 5 -8 2 -7 -9
2 -15 12 -21 9 -18 -11 0 -5 -6 -8 -14 -8 -8 0 -20 -10 -26 -22 -7 -13 -28
-38 -48 -56 -20 -18 -35 -37 -33 -43 1 -6 -1 -9 -5 -6 -10 6 -63 -50 -55 -58
4 -3 -2 -3 -11 1 -10 3 -17 2 -15 -3 2 -5 -24 -36 -57 -68 -33 -33 -59 -63
-58 -67 2 -5 -2 -8 -8 -8 -14 0 -68 -57 -61 -65 3 -3 1 -5 -4 -5 -6 0 -10 -13
-9 -30 0 -27 6 -35 28 -31 4 0 7 -4 7 -10 0 -8 4 -8 13 -2 6 6 23 13 37 16 14
4 34 20 45 36 10 16 23 27 27 25 4 -3 8 0 8 6 0 7 41 52 90 101 50 48 90 93
90 99 0 5 3 9 8 9 21 -4 31 2 26 15 -6 16 24 36 55 36 12 0 21 -7 21 -16 0 -8
4 -13 9 -9 5 3 12 -4 16 -15 3 -11 12 -20 20 -20 7 0 16 -10 20 -22 4 -14 8
-18 12 -10 2 6 11 12 19 12 8 0 17 7 20 15 4 8 12 15 20 15 8 0 13 4 12 8 -2
4 28 38 65 75 38 37 66 67 62 67 -3 0 0 6 7 14 7 8 16 12 19 10 4 -2 13 4 20
13 12 14 12 16 -1 8 -13 -8 -13 -6 -1 8 7 9 17 15 21 12 4 -2 18 7 31 22 13
14 17 23 9 18 -8 -4 -4 3 10 17 14 13 28 23 32 21 4 -2 9 6 13 17 4 11 11 18
16 15 5 -4 9 -2 9 4 0 6 6 8 14 5 8 -3 13 -11 10 -19 -3 -7 2 -15 11 -19 9 -3
14 -2 11 3 -4 5 4 7 16 3 14 -3 19 -2 14 6 -4 7 -3 12 2 12 6 0 8 9 5 19 -3
10 1 29 7 41 8 15 8 20 1 16 -6 -4 -11 -3 -11 3 0 5 5 13 10 16 6 3 10 20 10
36 0 17 3 28 8 26 4 -3 7 9 7 27 0 34 -17 43 -36 19z"/>
        <path d="M2027 2257 c4 -6 0 -8 -10 -4 -19 7 -26 -10 -17 -43 4 -14 3 -33 -2
-42 -6 -12 -5 -18 3 -18 8 0 8 -5 -2 -16 -10 -13 -10 -17 0 -24 9 -5 10 -10 2
-14 -8 -5 -8 -13 0 -28 8 -16 8 -19 -1 -13 -9 6 -9 2 -1 -14 7 -11 8 -21 3
-21 -4 0 -8 -9 -8 -20 0 -11 4 -20 8 -20 5 0 4 -8 -1 -19 -6 -10 -7 -22 -3
-26 10 -10 9 -29 -3 -37 -6 -5 -5 -12 5 -19 12 -9 11 -10 -5 -5 -18 5 -18 5
-3 -7 15 -12 15 -14 0 -25 -15 -10 -15 -11 3 -6 15 4 17 3 6 -4 -8 -5 -10 -15
-6 -22 9 -14 15 -74 7 -66 -3 3 -12 0 -20 -7 -13 -9 -14 -9 -8 1 4 7 2 12 -6
12 -8 0 -6 5 5 11 12 7 15 15 9 22 -5 7 -8 35 -8 62 1 28 -2 56 -7 63 -7 9 -6
11 6 7 8 -4 18 -1 23 6 4 8 3 10 -4 5 -6 -4 -20 -3 -30 3 -11 6 -24 6 -35 0
-13 -8 -19 -6 -24 7 -6 16 -7 16 -13 0 -6 -17 -7 -17 -23 -2 -15 15 -17 16
-17 2 0 -21 -17 -20 -29 2 -10 16 -10 16 -11 -2 0 -17 -1 -17 -25 -2 -21 14
-24 14 -19 1 8 -21 -13 -19 -25 3 -10 16 -10 16 -11 -2 0 -16 -3 -17 -12 -8
-15 15 -28 15 -28 1 0 -5 6 -7 13 -4 6 4 5 1 -3 -7 -17 -15 -24 -142 -7 -131
6 4 7 1 3 -6 -5 -7 -8 -28 -8 -47 0 -37 -8 -43 -28 -19 -10 12 -16 13 -28 3
-13 -10 -14 -10 -8 0 4 6 2 12 -3 12 -6 0 -11 -5 -11 -11 0 -8 -4 -8 -14 0
-10 9 -16 9 -21 1 -5 -8 -11 -8 -19 -1 -7 6 -16 8 -20 4 -11 -11 -67 -13 -60
-1 4 7 0 7 -13 0 -10 -6 -30 -9 -44 -8 -23 3 -24 0 -23 -44 0 -25 4 -52 8 -58
4 -7 3 -12 -2 -12 -5 0 -9 -7 -9 -15 0 -8 5 -15 11 -15 6 0 4 -5 -4 -10 -8 -5
-10 -10 -5 -10 11 0 13 -125 3 -136 -4 -3 -3 -17 2 -30 8 -19 5 -26 -10 -34
-18 -9 -20 -7 -21 17 -1 15 -2 44 -2 63 -1 19 3 38 8 42 6 5 6 8 -1 8 -7 0
-10 13 -8 30 2 17 -1 30 -6 30 -6 0 -9 3 -9 8 4 21 -3 24 -17 6 -8 -10 -13
-14 -10 -8 3 7 -1 14 -9 17 -8 4 -12 1 -9 -6 3 -9 -19 -12 -82 -12 -47 0 -88
-3 -91 -8 -2 -4 -10 -4 -16 -1 -7 4 -9 4 -5 0 3 -4 3 -20 -2 -36 -5 -18 -4
-32 3 -39 8 -8 7 -11 -2 -11 -11 0 -11 -3 -1 -15 10 -12 10 -15 -1 -15 -11 0
-11 -2 1 -10 11 -7 11 -10 2 -10 -7 0 -10 -5 -7 -11 11 -17 11 -89 0 -93 -7
-3 -7 -5 0 -5 14 -1 11 -114 -3 -119 -7 -2 -10 -8 -6 -13 3 -5 1 -9 -4 -9 -12
0 -7 -41 7 -69 11 -19 18 -23 37 -20 4 0 11 -5 15 -13 5 -7 9 -8 9 -2 0 11 62
10 80 -1 6 -3 10 0 10 7 0 9 3 9 10 -2 5 -8 10 -10 10 -4 0 6 15 11 33 12 53
2 67 5 67 14 0 5 5 6 11 2 6 -3 15 0 20 7 7 12 9 12 9 0 0 -11 3 -11 17 0 15
12 16 12 8 -1 -7 -12 -6 -13 6 -3 12 10 18 10 29 0 9 -9 11 -9 6 0 -4 7 1 12
11 12 31 1 57 6 78 17 11 5 39 9 63 8 23 0 42 2 42 6 0 17 71 30 82 15 5 -6 8
-6 8 1 0 7 13 10 30 9 17 -1 30 2 30 9 0 7 3 7 8 1 4 -5 17 -10 28 -11 16 0
20 4 17 15 -5 13 -3 14 8 3 18 -17 32 -15 25 4 -3 8 -2 13 3 9 19 -11 70 -12
75 -1 3 6 5 5 5 -3 1 -11 4 -11 16 -1 12 10 15 10 15 -1 0 -11 2 -11 10 1 5 8
12 11 16 7 4 -4 14 -1 22 6 13 9 14 9 8 0 -9 -16 6 -17 22 -1 9 9 12 9 12 -1
0 -9 4 -10 13 -4 6 6 19 10 27 10 8 0 26 3 40 7 19 6 21 5 10 -3 -9 -7 -10
-11 -3 -11 6 0 15 5 18 10 4 6 10 8 15 5 5 -3 12 -1 15 5 5 8 11 7 21 -1 9 -7
14 -8 14 -1 0 6 8 9 18 7 9 -1 23 3 31 9 12 9 13 8 7 -4 -4 -8 0 -6 8 4 9 11
19 17 22 13 10 -9 35 13 28 24 -3 5 0 9 6 9 7 0 8 6 1 19 -6 10 -7 21 -4 25 3
3 -1 6 -10 6 -15 0 -22 11 -18 33 0 4 -7 7 -17 8 -10 0 -12 3 -4 6 6 2 9 9 6
14 -3 5 -7 25 -9 44 -2 24 1 33 8 28 9 -5 9 -3 1 8 -5 8 -10 23 -10 34 1 11
-3 23 -9 27 -6 5 -6 8 1 8 8 0 9 13 4 40 -5 27 -4 40 4 40 7 0 8 3 1 8 -13 9
-13 62 -1 81 6 9 5 12 -1 8 -7 -4 -10 5 -8 26 2 17 -2 38 -9 46 -9 12 -8 13 3
6 11 -6 13 -3 7 19 -4 18 -2 26 6 26 8 0 9 3 3 8 -5 4 -11 31 -13 60 -1 40 1
51 10 46 10 -5 10 -4 1 6 -6 7 -9 19 -6 28 5 11 2 13 -6 7 -10 -6 -11 -3 -2
14 7 11 8 21 4 21 -4 0 -1 5 7 10 12 8 12 10 -5 11 -11 0 -14 3 -8 6 10 3 10
10 2 25 -8 15 -8 19 0 14 12 -8 11 21 -2 41 -4 6 -1 13 5 16 10 3 9 8 -2 22
-14 17 -13 18 4 12 15 -6 17 -5 7 7 -6 7 -8 22 -4 31 4 13 3 16 -6 10 -10 -6
-11 -3 -2 14 8 15 9 21 1 21 -6 0 -9 4 -6 8 6 10 -25 9 -42 -2 -7 -4 -12 -2
-12 6 0 9 -3 9 -10 -2 -9 -13 -10 -13 -10 0 0 13 -1 13 -10 0 -9 -13 -10 -13
-10 0 0 13 -1 13 -10 0 -9 -13 -10 -13 -10 0 0 13 -1 13 -10 0 -9 -13 -10 -13
-10 0 0 13 -1 13 -10 0 -9 -13 -10 -13 -10 0 0 13 -1 13 -10 0 -9 -13 -10 -13
-10 0 0 13 -1 13 -10 0 -9 -13 -10 -13 -10 0 0 13 -1 13 -10 0 -9 -13 -10 -13
-10 0 0 13 -1 13 -10 0 -9 -13 -10 -13 -10 0 0 13 -1 13 -10 0 -9 -13 -10 -13
-10 0 0 13 -1 13 -10 0 -5 -8 -10 -10 -10 -4 0 6 -7 11 -15 11 -8 0 -11 -5 -8
-10z m-12 -537 c4 -6 1 -9 -6 -8 -6 2 -14 -3 -16 -9 -3 -7 2 -13 10 -13 8 0
18 -7 21 -16 5 -14 4 -15 -8 -5 -8 7 -21 9 -27 5 -8 -4 -9 -3 -5 4 4 7 3 12
-2 12 -5 0 -9 7 -9 15 0 8 4 12 9 9 4 -3 8 0 8 5 0 14 17 14 25 1z m-323 -45
c4 -5 3 -16 -1 -23 -5 -8 -6 -24 -3 -35 4 -15 2 -18 -9 -13 -8 4 -5 0 5 -8 15
-12 16 -16 5 -16 -10 -1 -9 -5 5 -15 12 -9 15 -15 7 -15 -8 0 -11 -8 -8 -20 3
-11 1 -20 -5 -20 -5 0 -6 -5 -3 -10 4 -6 11 -7 17 -4 6 4 6 -2 -1 -15 -14 -25
-23 -28 -15 -3 5 14 4 14 -4 2 -13 -18 -6 -31 13 -23 22 8 8 -25 -15 -37 -15
-8 -17 -6 -13 13 4 18 3 20 -7 7 -10 -13 -11 -12 -5 5 4 11 8 28 10 38 2 9 6
21 10 26 3 5 0 13 -6 17 -8 4 -9 3 -5 -4 4 -7 2 -12 -3 -12 -14 0 -14 6 0 32
9 16 8 23 -2 29 -11 7 -9 9 6 9 19 1 19 1 2 11 -14 8 -15 14 -7 24 8 9 8 15 0
20 -6 3 -8 11 -4 16 3 5 9 7 14 4 5 -3 12 0 16 6 4 7 3 9 -2 6 -6 -3 -16 -2
-24 4 -13 7 -13 9 -1 9 11 0 9 6 -5 23 l-19 22 25 -20 c14 -11 28 -24 32 -30z
m328 -30 c9 -10 9 -15 1 -15 -6 0 -11 -9 -11 -20 0 -11 4 -20 8 -20 10 0 9
-61 -1 -77 -5 -7 -5 -13 0 -13 4 0 8 -20 9 -44 0 -25 -3 -43 -8 -40 -4 3 -8
-1 -8 -8 -1 -9 -3 -9 -9 2 -10 18 -9 90 2 108 5 7 4 12 -2 12 -6 0 -11 5 -11
11 0 6 6 9 13 6 8 -3 14 1 14 9 0 8 -6 14 -13 14 -6 0 -15 7 -18 16 -3 8 -2
12 4 9 6 -3 10 1 10 10 0 9 -4 13 -10 10 -5 -3 -10 -1 -10 4 0 6 7 11 15 11 8
0 15 5 15 11 0 6 -9 8 -22 4 -18 -5 -20 -4 -8 4 20 14 25 14 40 -4z"/>
        <path d="M890 1972 c0 -7 -4 -11 -9 -7 -5 3 -15 -1 -23 -8 -7 -7 -29 -13 -50
-12 -20 0 -35 -2 -33 -5 2 -3 -3 -11 -11 -18 -9 -8 -14 -9 -14 -2 0 6 -5 8
-12 3 -7 -4 -22 -9 -33 -10 -10 -2 -22 -9 -26 -15 -4 -7 -25 -13 -45 -14 -21
0 -40 -6 -42 -13 -2 -6 -8 -9 -13 -5 -5 3 -9 0 -9 -6 0 -7 -8 -9 -20 -5 -12 4
-20 2 -20 -5 0 -6 -4 -8 -10 -5 -5 3 -10 1 -10 -5 0 -6 -4 -8 -10 -5 -6 3 -10
1 -10 -5 0 -7 -6 -10 -12 -7 -7 2 -19 -3 -26 -12 -11 -14 -11 -14 -6 4 4 16 2
15 -9 -4 -9 -16 -17 -20 -21 -12 -5 8 -14 4 -27 -11 -12 -13 -17 -16 -13 -9 5
10 -3 8 -22 -6 -16 -11 -41 -23 -56 -27 -16 -3 -27 -12 -25 -19 1 -6 -6 -11
-16 -9 -9 2 -17 -2 -17 -8 0 -6 -4 -9 -9 -5 -6 3 -14 -3 -20 -12 -5 -10 -12
-17 -15 -16 -13 5 -35 -10 -29 -20 3 -6 1 -7 -5 -3 -6 4 -20 -2 -32 -14 -11
-11 -22 -20 -25 -20 -3 0 -10 0 -16 0 -5 0 -7 -5 -3 -12 5 -7 2 -9 -8 -6 -19
8 -20 -23 -1 -37 8 -6 15 -20 16 -32 0 -12 4 -21 8 -20 4 1 7 -2 7 -6 1 -5 10
-17 21 -26 11 -10 18 -21 14 -25 -4 -3 3 -15 15 -27 13 -11 20 -23 18 -28 -3
-4 4 -8 15 -8 11 -1 22 4 25 12 3 8 11 12 19 9 7 -3 15 2 19 11 3 9 10 13 16
10 5 -3 10 -1 10 4 0 6 6 11 13 11 7 0 23 9 35 20 12 12 22 17 22 11 0 -5 10
-4 24 2 13 7 22 15 20 18 -5 9 26 20 37 13 5 -3 9 0 9 6 0 6 5 8 10 5 6 -3 10
-1 10 4 0 6 9 11 19 11 11 0 27 7 35 16 12 12 16 12 16 2 0 -8 3 -9 8 -3 4 6
13 10 20 9 6 -1 20 -2 30 -3 13 -1 14 -3 3 -10 -9 -6 -10 -11 -2 -15 6 -4 9
-12 6 -17 -4 -5 -3 -9 2 -9 4 0 8 -13 8 -30 0 -16 -4 -30 -10 -30 -5 0 -4 -4
3 -9 8 -4 13 -11 13 -15 -4 -25 0 -56 7 -53 4 3 8 -6 8 -19 1 -15 -2 -22 -10
-17 -6 3 -3 -3 7 -14 14 -16 15 -22 5 -26 -11 -4 -11 -6 0 -6 7 -1 10 -6 7
-11 -4 -6 -1 -18 7 -27 8 -10 8 -14 1 -10 -6 4 -15 2 -19 -4 -4 -8 -3 -9 4 -5
7 4 12 2 12 -4 0 -6 4 -9 8 -6 5 3 8 -13 7 -34 -1 -22 2 -40 7 -40 4 0 8 -12
8 -26 0 -17 4 -23 13 -18 7 5 6 0 -3 -11 -8 -10 -10 -16 -3 -12 9 6 11 -4 10
-32 -2 -31 0 -37 10 -29 10 8 13 3 14 -23 1 -19 1 -37 0 -41 0 -5 4 -8 10 -8
5 0 7 -4 4 -10 -3 -6 -1 -10 5 -10 6 0 8 -5 5 -10 -3 -6 0 -10 7 -10 9 0 9 -3
-2 -10 -10 -6 -11 -10 -2 -10 6 0 12 -9 12 -20 0 -11 5 -20 10 -20 6 0 10 -9
10 -20 0 -11 5 -20 11 -20 5 0 8 -4 5 -9 -3 -4 3 -19 14 -31 18 -21 24 -35 18
-43 -5 -6 30 -37 41 -37 6 0 11 -6 11 -12 0 -10 3 -9 9 1 6 9 10 10 16 2 5 -9
10 -9 20 -1 8 7 19 9 25 5 5 -3 10 -1 10 4 0 6 3 10 8 9 4 -1 16 2 27 8 11 5
41 9 67 9 26 0 44 4 41 9 -4 5 1 7 10 3 10 -3 17 -3 17 2 0 9 16 12 78 14 23
1 42 5 42 10 0 5 8 3 17 -4 11 -9 14 -10 10 -2 -9 15 19 23 84 26 24 1 50 6
57 10 6 5 17 5 22 2 6 -3 10 -1 10 5 0 6 5 8 10 5 6 -4 17 -1 25 5 12 10 15
10 15 0 0 -9 4 -9 13 -3 6 6 22 9 35 8 12 -1 22 2 22 6 0 4 9 5 20 2 11 -3 26
0 34 6 11 9 15 9 19 -1 4 -9 6 -10 6 -1 1 7 8 10 16 7 8 -4 15 -2 15 4 0 6 9
8 20 5 11 -3 28 1 37 8 12 10 14 10 9 2 -9 -17 6 -17 23 0 11 10 12 9 6 -3 -8
-13 -6 -13 7 -2 13 10 17 10 21 0 3 -8 6 -6 6 5 1 15 5 16 21 7 11 -6 20 -7
20 -3 0 5 25 8 56 8 31 0 58 3 60 7 3 4 12 4 21 1 10 -4 14 -2 10 4 -8 13 11
12 32 -1 9 -6 12 -5 8 1 -4 6 2 13 13 16 11 3 18 1 15 -3 -6 -10 15 -8 32 3 8
5 13 3 13 -5 0 -8 3 -9 8 -3 4 7 55 11 125 10 96 0 116 3 112 14 -4 10 -2 11
7 4 7 -6 23 -13 36 -16 19 -4 22 -2 18 10 -5 13 -4 14 8 4 10 -8 16 -9 21 -1
3 6 12 7 18 3 18 -11 47 -11 54 0 3 6 1 7 -5 3 -7 -4 -12 -3 -12 3 0 5 6 12
13 14 9 4 9 6 0 6 -7 1 -13 6 -13 12 0 5 5 7 10 4 6 -3 10 -2 10 4 0 5 -6 12
-12 14 -10 4 -10 6 0 6 13 1 18 140 5 142 -26 4 -233 3 -233 -1 0 -3 -11 -6
-25 -6 -14 -1 -23 1 -20 5 2 4 -10 5 -27 3 -21 -3 -26 -7 -17 -13 10 -6 7 -8
-8 -6 -12 0 -20 4 -17 8 7 11 -22 4 -38 -9 -8 -6 -18 -9 -21 -5 -9 8 -57 11
-57 3 0 -3 -37 -5 -82 -4 -48 0 -86 -4 -90 -10 -5 -7 -8 -6 -8 3 0 11 -3 11
-17 0 -15 -12 -16 -12 -8 1 8 13 7 13 -8 1 -14 -11 -17 -11 -17 0 0 8 -6 6
-16 -7 -8 -10 -13 -14 -10 -7 4 6 2 14 -4 18 -5 3 -10 -1 -10 -9 0 -9 -7 -16
-16 -16 -9 0 -12 5 -8 13 6 9 4 9 -7 1 -22 -17 -89 -25 -89 -11 0 7 -4 6 -10
-3 -5 -8 -10 -11 -10 -6 0 5 -6 3 -14 -3 -10 -8 -16 -9 -21 -1 -4 7 -12 7 -24
0 -10 -5 -21 -7 -24 -4 -3 3 -12 2 -19 -2 -17 -11 -32 -13 -91 -16 -28 -1 -46
-7 -44 -13 3 -5 -6 -10 -18 -10 -19 0 -21 3 -12 15 6 8 2 7 -10 -4 -13 -11
-39 -19 -65 -20 -24 0 -49 -8 -56 -16 -12 -13 -13 -13 -6 0 7 12 5 13 -8 3 -8
-7 -18 -10 -22 -6 -4 4 -11 1 -16 -7 -6 -8 -10 -10 -10 -4 0 6 -7 11 -15 11
-8 0 -11 -5 -8 -10 4 -6 0 -8 -10 -4 -10 4 -16 2 -14 -5 1 -7 -11 -12 -30 -11
-18 0 -33 -5 -33 -11 0 -6 -4 -4 -10 4 -8 12 -10 12 -15 -2 -4 -10 -13 -14
-21 -11 -8 3 -12 8 -10 11 3 3 0 12 -7 20 -9 13 -9 14 0 8 9 -5 11 -2 7 8 -3
9 -10 16 -16 16 -5 0 -6 5 -3 10 3 6 2 10 -3 10 -5 0 -9 19 -10 42 -1 23 -7
45 -12 48 -10 6 -21 40 -22 65 0 6 3 19 8 29 6 16 4 18 -11 13 -14 -6 -16 -5
-6 7 9 10 8 15 -2 19 -8 3 -13 16 -12 29 1 12 -2 29 -8 36 -6 8 -5 12 4 12 11
0 11 2 -1 10 -11 7 -11 10 -2 10 7 0 10 5 7 10 -4 6 -12 7 -18 4 -8 -5 -8 -3
1 7 15 16 16 33 2 24 -7 -4 -8 3 -4 21 5 19 4 25 -5 20 -14 -9 -10 16 4 26 6
5 6 8 -1 8 -7 0 -10 16 -9 40 1 24 -2 40 -9 40 -6 0 -4 5 4 10 10 6 11 10 2
10 -14 0 -12 21 3 32 6 5 5 8 -2 8 -7 0 -13 7 -13 16 0 9 5 12 13 8 9 -6 9 -5
0 7 -10 12 -10 18 0 29 6 7 7 10 2 7 -6 -3 -17 4 -25 16 -12 20 -12 21 3 9 13
-11 15 -10 10 9 -5 17 -3 20 8 14 11 -6 12 -5 2 6 -16 16 -17 33 -1 23 7 -5 8
-3 2 7 -13 21 -14 39 -1 39 7 0 5 5 -3 10 -8 5 -10 10 -4 10 6 0 10 14 9 30
-1 17 3 30 9 30 7 0 7 3 1 8 -13 9 -19 35 -6 28 5 -3 11 1 15 9 3 8 0 15 -6
15 -7 0 -4 6 5 13 16 11 16 14 3 32 -9 12 -15 15 -16 7z"/>
        <path d="M1980 1801 c0 -6 4 -13 10 -16 6 -3 7 1 4 9 -7 18 -14 21 -14 7z"/>
        <path d="M2108 728 c-12 -10 -29 -16 -35 -13 -7 2 -13 -3 -13 -11 0 -11 -6
-14 -16 -10 -8 3 -12 2 -9 -4 3 -6 1 -10 -5 -10 -6 0 -8 -4 -5 -10 3 -5 -1
-10 -9 -10 -15 0 -21 -13 -16 -35 1 -5 -1 -7 -5 -3 -10 10 -33 -15 -28 -29 3
-7 -1 -13 -8 -13 -11 0 -11 -3 1 -10 10 -6 11 -10 3 -10 -7 0 -13 -12 -13 -26
0 -14 -3 -23 -7 -21 -5 3 -8 -6 -8 -19 0 -13 4 -24 9 -24 4 0 5 -7 2 -16 -4
-9 1 -28 9 -41 9 -13 13 -27 11 -32 -3 -5 3 -20 14 -33 11 -14 16 -29 12 -34
-4 -5 -3 -6 2 -2 9 8 46 -28 46 -43 0 -5 7 -6 15 -3 10 4 15 0 15 -12 0 -9 3
-14 7 -11 3 4 12 2 18 -3 7 -6 24 -11 39 -12 14 -1 26 -6 26 -11 0 -5 8 -3 17
4 14 12 16 12 8 0 -6 -11 -4 -13 8 -8 9 3 19 2 22 -3 3 -5 12 -7 20 -4 8 4 12
11 9 16 -4 6 3 5 15 -1 17 -10 22 -9 27 4 3 8 10 13 14 10 5 -3 11 -1 15 5 4
6 11 8 16 5 5 -4 9 -1 9 4 0 6 6 11 14 11 8 0 17 7 20 16 3 9 11 12 18 8 7 -4
10 -4 6 0 -6 7 7 27 39 61 6 6 13 21 15 31 2 10 8 22 13 26 6 5 5 8 -3 8 -7 0
-10 5 -7 10 4 6 10 8 15 5 5 -3 12 0 16 6 4 7 3 9 -4 5 -6 -3 -13 -2 -17 4 -3
5 -2 10 4 10 6 0 8 7 5 15 -4 9 0 15 7 15 9 1 8 4 -4 11 -14 8 -15 14 -7 24 8
9 7 17 -5 29 -9 9 -14 20 -11 25 9 14 -5 42 -18 34 -6 -3 -8 -3 -4 2 4 4 3 14
-3 22 -6 7 -9 13 -5 13 3 0 -2 8 -11 18 -10 11 -21 17 -25 15 -4 -2 -9 6 -13
17 -4 11 -11 18 -16 15 -5 -4 -9 -2 -9 3 0 6 -9 8 -20 5 -14 -4 -20 0 -20 11
0 19 5 18 -97 20 -65 2 -86 -1 -105 -16z m142 -130 c0 -4 3 -7 8 -7 19 3 33
-2 27 -11 -3 -5 1 -10 9 -10 9 0 16 -5 16 -11 0 -7 8 -18 18 -26 9 -8 11 -11
3 -7 -10 5 -12 3 -5 -7 13 -22 16 -51 3 -43 -8 4 -8 0 0 -15 10 -17 9 -22 -4
-27 -8 -3 -15 -13 -15 -20 0 -8 -7 -17 -15 -20 -8 -4 -12 -11 -8 -18 3 -6 3
-8 -2 -4 -4 4 -15 2 -23 -5 -13 -10 -14 -9 -7 3 6 11 3 10 -12 -3 -23 -20 -53
-23 -53 -4 0 8 -4 7 -10 -3 -6 -10 -10 -11 -10 -2 0 6 -9 12 -21 12 -11 0 -17
5 -14 10 3 6 -2 10 -12 10 -14 0 -15 2 -5 9 10 6 9 10 -7 14 -12 3 -21 13 -22
24 -1 10 -2 33 -3 51 -1 17 2 32 6 32 4 0 8 7 8 16 0 18 23 44 39 44 6 0 11 5
11 11 0 6 7 8 16 5 8 -3 13 -2 10 3 -3 5 12 8 34 8 22 0 40 -4 40 -9z"/>
        <path d="M1252 594 c-16 -17 -36 -18 -26 -1 5 7 1 6 -10 -3 -10 -8 -25 -15
-34 -16 -8 -2 -18 -8 -22 -14 -6 -9 -9 -9 -13 1 -4 10 -6 9 -6 -4 -1 -9 -5
-16 -10 -15 -10 3 -51 -40 -51 -54 0 -4 -5 -7 -12 -5 -12 2 -14 -4 -17 -39 0
-9 -6 -12 -13 -8 -7 5 -9 0 -6 -14 3 -12 1 -23 -6 -26 -7 -3 -6 -5 2 -5 10 -1
9 -5 -3 -17 -11 -12 -13 -20 -5 -29 8 -9 8 -15 0 -20 -5 -3 -10 -11 -10 -16 0
-6 5 -7 10 -4 7 4 8 -3 4 -21 -6 -21 -4 -25 7 -19 8 5 11 5 7 0 -4 -4 -2 -17
4 -29 10 -19 10 -20 -6 -7 -10 8 -5 -4 10 -27 15 -23 31 -42 36 -42 4 0 8 -7
8 -15 0 -8 7 -15 15 -15 8 0 15 -4 15 -10 0 -5 5 -10 11 -10 7 0 20 -10 30
-22 13 -14 19 -17 19 -7 1 10 4 9 11 -3 8 -15 24 -18 85 -18 58 0 73 3 68 13
-5 8 -3 8 9 -2 14 -11 18 -11 23 3 3 9 10 13 15 10 5 -3 9 0 9 5 0 6 5 11 11
11 5 0 7 -5 3 -12 -4 -7 -3 -8 4 -4 7 4 12 14 12 22 0 8 3 13 8 11 4 -3 20 8
35 24 16 16 25 29 20 29 -4 0 3 9 17 20 17 13 20 20 10 20 -10 0 -7 7 10 20
14 11 20 20 14 20 -7 0 -11 11 -10 24 0 13 3 23 6 21 3 -2 6 19 5 46 0 27 -3
49 -7 49 -4 0 -5 9 -3 19 2 11 -3 22 -11 25 -8 3 -14 14 -14 23 0 10 -9 25
-19 33 -11 7 -19 16 -17 19 2 3 -5 14 -16 24 -10 9 -18 14 -18 11 0 -3 -12 4
-26 15 -14 11 -32 17 -41 14 -12 -5 -14 -3 -8 7 5 8 3 11 -6 8 -8 -3 -24 -1
-37 3 -17 7 -22 6 -17 -4 4 -6 -1 -3 -9 7 -12 15 -16 16 -16 5 0 -9 -3 -10 -8
-3 -5 9 -11 8 -20 -2z m18 -145 c0 8 8 10 23 6 46 -14 77 -30 77 -41 0 -7 6
-14 14 -17 15 -6 28 -67 13 -67 -5 0 -4 -7 3 -15 10 -12 10 -15 -1 -15 -10 0
-11 -2 -2 -8 8 -5 3 -17 -18 -41 -16 -19 -29 -31 -29 -27 0 4 -7 1 -14 -7 -29
-29 -148 -4 -129 27 4 6 -2 4 -12 -4 -14 -11 -17 -11 -11 -1 5 8 4 16 -3 21
-7 4 -13 17 -14 28 -1 12 -5 22 -10 22 -5 0 -3 8 4 17 12 15 12 16 -1 8 -13
-8 -13 -6 -2 8 8 9 11 21 7 27 -3 5 -1 10 5 10 6 0 9 4 6 9 -3 5 1 12 10 15 8
3 12 10 9 16 -3 5 3 10 13 10 11 0 23 7 26 16 5 13 9 14 21 4 11 -9 15 -10 15
-1z"/>
    </g>
</svg>
